<svg width="27" height="26" viewBox="0 0 27 26" fill="none" xmlns="http://www.w3.org/2000/svg">
<path d="M10.7797 18.4563C10.2965 18.4563 9.90471 18.848 9.90471 19.3313C9.90471 19.8145 10.2965 20.2063 10.7797 20.2063H15.4464C15.9296 20.2063 16.3214 19.8145 16.3214 19.3313C16.3214 18.848 15.9296 18.4563 15.4464 18.4563H10.7797Z" fill="#808080"/>
<path fill-rule="evenodd" clip-rule="evenodd" d="M13.359 0.0045094C13.1951 -0.00150313 13.031 -0.00150313 12.8671 0.0045094C11.7852 0.0442002 10.8109 0.412107 9.74271 1.02454C8.70173 1.62136 7.50329 2.49209 5.98268 3.59689L5.90002 3.65695C4.37939 4.76174 3.18092 5.63246 2.29163 6.43807C1.37908 7.26475 0.728116 8.07762 0.356029 9.09435C0.299664 9.24836 0.248966 9.4044 0.204037 9.56213C-0.092553 10.6034 -0.0437132 11.6436 0.208649 12.8488C0.454579 14.0233 0.912356 15.4321 1.49319 17.2197L1.52477 17.3169C2.10558 19.1045 2.56334 20.5134 3.05471 21.6081C3.55893 22.7314 4.13087 23.6017 4.98285 24.2698C5.11191 24.371 5.24464 24.4674 5.38077 24.5589C6.27941 25.1627 7.28384 25.4377 8.50802 25.5702C9.70099 25.6992 11.1824 25.6992 13.0619 25.6992H13.1641C15.0437 25.6992 16.5251 25.6992 17.7181 25.5702C18.9422 25.4377 19.9467 25.1627 20.8453 24.5589C20.9814 24.4674 21.1142 24.371 21.2432 24.2698C22.0952 23.6017 22.6672 22.7314 23.1714 21.6081C23.6628 20.5134 24.1205 19.1045 24.7013 17.3169L24.7329 17.2197C25.3137 15.4322 25.7715 14.0232 26.0174 12.8488C26.2698 11.6436 26.3186 10.6034 26.0221 9.56213C25.9771 9.4044 25.9264 9.24837 25.8701 9.09435C25.498 8.07762 24.847 7.26475 23.9345 6.43807C23.0452 5.63246 21.8467 4.76173 20.3261 3.65694L20.2434 3.59687C18.7228 2.49208 17.5243 1.62136 16.4834 1.02454C15.4152 0.412107 14.4409 0.0442002 13.359 0.0045094ZM12.9313 1.75333C13.0524 1.74889 13.1737 1.74889 13.2948 1.75333C13.9895 1.77882 14.6814 2.00862 15.613 2.54272C16.5624 3.08704 17.6851 3.90129 19.2561 5.04271C20.8272 6.18413 21.9485 7.0003 22.7596 7.73503C23.5554 8.45597 23.9878 9.04298 24.2267 9.69578C24.2683 9.80961 24.3058 9.92494 24.339 10.0415C24.5294 10.7101 24.5247 11.4391 24.3046 12.4901C24.0803 13.5613 23.6528 14.8807 23.0528 16.7275C22.4527 18.5744 22.023 19.8931 21.5748 20.8915C21.1351 21.8711 20.7104 22.4637 20.1634 22.8927C20.068 22.9675 19.9699 23.0388 19.8693 23.1064C19.2923 23.4941 18.5975 23.7148 17.5299 23.8303C16.4419 23.948 15.0549 23.9492 13.113 23.9492C11.1711 23.9492 9.78423 23.948 8.69621 23.8303C7.6286 23.7148 6.93378 23.4941 6.3568 23.1064C6.25618 23.0388 6.15807 22.9675 6.06268 22.8927C5.51566 22.4637 5.09099 21.8711 4.65126 20.8915C4.20312 19.8931 3.77341 18.5744 3.17333 16.7275C2.57325 14.8807 2.14579 13.5613 1.9215 12.4901C1.70141 11.4391 1.69666 10.7101 1.88709 10.0415C1.9203 9.92494 1.95777 9.80962 1.99943 9.69578C2.23834 9.04298 2.67069 8.45597 3.46653 7.73503C4.27759 7.0003 5.39893 6.18413 6.96996 5.04271C8.54099 3.90129 9.66373 3.08704 10.6131 2.54272C11.5447 2.00862 12.2366 1.77882 12.9313 1.75333Z" fill="#808080"/>
</svg>
