<svg width="750" height="86" viewBox="0 0 750 86" fill="none" xmlns="http://www.w3.org/2000/svg">
<path d="M313.944 10.3781C320.444 3.87808 329.644 0.978043 338.644 0.278043C349.044 -0.321957 359.944 -0.321932 369.644 4.17807C377.644 7.37807 382.844 15.3781 384.544 23.6781C376.444 25.4781 368.044 26.2781 359.844 27.6781C357.944 22.6781 352.944 19.3781 347.644 18.9781C342.944 18.5781 337.844 18.8781 333.644 21.3781C330.244 23.3781 328.644 27.3781 327.444 30.9781C324.444 40.9781 324.744 52.778 331.544 61.278C334.744 65.678 340.444 67.2781 345.644 67.4781C351.844 67.2781 357.644 64.978 363.044 62.278C363.144 59.178 363.144 56.0781 363.044 53.0781C357.044 52.9781 351.044 53.0781 345.044 52.9781C345.044 47.5781 345.044 42.178 345.044 36.778C358.444 36.678 371.744 36.678 385.144 36.778C385.244 48.578 385.044 60.2781 385.244 72.0781C373.344 80.0781 359.244 85.4781 344.644 85.0781C331.244 85.4781 316.844 80.178 309.044 68.778C297.244 51.278 299.044 25.5781 313.944 10.3781Z" fill="#1E457E"/>
<path d="M516.144 0.777455C526.544 -0.622545 537.344 -0.32252 547.144 3.67748C558.344 7.87748 566.445 18.5775 568.745 30.1775C571.245 42.7775 570.345 56.6775 563.245 67.6775C559.745 73.4775 554.645 78.2775 548.445 81.0775C538.845 85.4775 527.845 85.7775 517.545 84.3775C506.945 82.8775 496.644 77.2775 490.844 68.1775C483.344 56.3775 482.444 41.4775 485.944 28.1775C488.444 19.3775 493.444 10.7775 501.444 5.97747C505.944 3.07747 511.044 1.57746 516.144 0.777455ZM522.245 18.8775C515.245 20.3775 510.544 27.1775 509.444 33.8775C507.744 42.9775 508.044 53.2775 513.844 60.9775C520.844 68.6775 535.844 67.7775 540.844 58.1775C544.544 51.5775 545.144 43.5775 544.144 36.1775C543.444 31.2775 541.844 26.0775 538.144 22.6775C533.944 18.6775 527.645 17.9775 522.245 18.8775Z" fill="#1E457E"/>
<path d="M399.844 1.77808C413.844 1.67808 427.744 1.87813 441.744 1.57812C450.744 1.87813 460.144 3.17808 467.644 8.27808C472.544 11.4781 475.244 17.3781 475.144 23.1781C475.044 29.8781 473.444 37.0781 468.344 41.7781C464.144 45.8781 458.144 47.3781 452.444 47.5781C460.144 47.9781 465.544 54.2781 469.844 59.9781C474.144 67.4781 477.944 75.1781 481.944 82.7781C479.844 82.7781 477.744 82.8781 475.644 83.1781C467.444 83.4781 459.344 83.0781 451.244 82.7781C447.844 75.1781 444.144 67.6781 440.144 60.3781C438.444 57.4781 436.844 54.3781 434.344 52.2781C432.044 50.3781 429.044 49.8781 426.344 49.0781C426.044 60.4781 426.444 71.8781 426.044 83.2781C417.344 83.0781 408.644 83.4781 399.844 83.0781C399.744 55.9781 399.944 28.8781 399.844 1.77808ZM426.344 17.8781C426.244 23.4781 426.344 29.1781 426.344 34.7781C432.344 34.5781 438.544 35.4781 444.444 33.6781C450.344 31.7781 450.344 22.6781 445.144 19.8781C439.444 16.7781 432.544 18.1781 426.344 17.8781Z" fill="#1E457E"/>
<path d="M0.0444444 20.9774C0.0444444 14.5774 -0.0555556 8.17734 0.0444444 1.77734C25.5444 1.87734 51.0444 1.77734 76.5444 1.77734C76.4444 8.17734 76.5444 14.6774 76.5444 21.0774C67.6444 21.0774 58.6444 20.9774 49.7444 21.0774C49.7444 41.7774 49.6444 62.5773 49.7444 83.2773C41.8444 83.1773 33.9444 83.3774 26.0444 83.1774C25.8444 62.4774 25.9444 41.7774 25.9444 21.0774C17.3444 21.0774 8.64444 20.9774 0.0444444 20.9774Z" fill="#1E457E"/>
<path d="M87.8447 1.77723C96.6447 1.77723 105.445 1.67723 114.245 1.77723C114.245 11.2772 114.145 20.8773 114.345 30.3773C123.445 30.2773 132.545 30.2773 141.645 30.1773C141.645 20.6773 141.545 11.1773 141.645 1.67726C149.845 1.67726 157.945 1.57726 166.045 1.67726C165.645 28.8773 165.845 55.9773 165.945 83.1773C157.845 82.9773 149.745 83.3773 141.645 82.8773C141.645 71.8773 141.645 60.8772 141.645 49.7772C132.545 49.6772 123.345 49.5773 114.245 49.6773C114.245 60.8773 114.445 71.9773 114.145 83.1773C105.445 82.9773 96.7447 83.1772 88.0447 82.9772C87.8447 56.0772 87.9447 28.8772 87.8447 1.77723Z" fill="#1E457E"/>
<path d="M183.144 83.0769C183.044 55.9769 183.044 28.8769 183.144 1.77687C196.944 1.77687 210.844 1.67687 224.644 1.77687C232.244 1.97687 240.344 3.4769 246.344 8.3769C253.044 14.2769 254.344 23.7769 253.444 32.1769C252.944 39.5769 248.844 46.9769 241.944 50.2769C231.944 55.2769 220.344 53.8769 209.544 54.1769C209.444 63.8769 209.544 73.4769 209.444 83.1769C200.744 83.1769 191.944 83.4769 183.144 83.0769ZM209.544 18.2769C209.444 24.3769 209.544 30.4769 209.544 36.5769C214.244 36.3769 219.244 36.9769 223.744 35.1769C229.744 32.8769 230.444 22.9769 224.744 19.9769C220.044 17.6769 214.644 18.4769 209.544 18.2769Z" fill="#1E457E"/>
<path d="M583.345 1.77617C591.545 1.67617 599.645 1.67617 607.845 1.77617C607.945 18.2762 607.545 34.7762 608.045 51.1762C608.045 58.6762 614.345 65.0762 621.745 65.5762C626.245 65.8762 631.545 64.6762 634.345 60.7762C636.845 57.0762 636.945 52.3762 636.945 48.0762C636.845 32.6762 637.045 17.2762 636.845 1.77617C645.145 1.67617 653.445 1.67617 661.745 1.77617C661.545 18.8762 661.845 35.9762 661.645 53.0762C661.645 63.1762 656.945 73.3762 648.345 78.8762C639.545 84.3762 628.645 85.1762 618.445 84.7762C607.545 84.3762 595.945 80.3762 589.145 71.4762C584.745 66.0762 583.245 58.8762 583.145 52.0762C583.345 35.3762 583.345 18.5762 583.345 1.77617Z" fill="#1E457E"/>
<path d="M678.744 1.77687C692.744 1.77687 706.644 1.67687 720.644 1.77687C728.444 1.97687 736.744 3.67689 742.644 9.17689C748.644 15.0769 749.744 24.1769 749.044 32.1769C748.444 39.4769 744.544 46.9769 737.644 50.1769C727.444 55.2769 715.744 53.8769 704.744 54.2769C704.744 63.9769 704.744 73.5769 704.744 83.2769C696.144 83.1769 687.444 83.5769 678.844 83.0769C678.744 55.9769 678.844 28.8769 678.744 1.77687ZM704.844 18.2769C704.744 24.3769 704.744 30.4769 704.844 36.4769C709.744 36.2769 714.944 36.9769 719.544 34.9769C725.244 32.5769 725.944 23.2769 720.544 20.0769C715.844 17.5769 710.144 18.4769 704.844 18.2769Z" fill="#1E457E"/>
</svg>
